<?xml version="1.0" encoding="UTF-8" standalone="no"?>
<!-- Created with Inkscape (http://www.inkscape.org/) -->

<svg
   xmlns:dc="http://purl.org/dc/elements/1.1/"
   xmlns:cc="http://creativecommons.org/ns#"
   xmlns:rdf="http://www.w3.org/1999/02/22-rdf-syntax-ns#"
   xmlns:svg="http://www.w3.org/2000/svg"
   xmlns="http://www.w3.org/2000/svg"
   xmlns:sodipodi="http://sodipodi.sourceforge.net/DTD/sodipodi-0.dtd"
   xmlns:inkscape="http://www.inkscape.org/namespaces/inkscape"
   width="210mm"
   height="297mm"
   viewBox="0 0 744.09448819 1052.3622047"
   id="svg2"
   version="1.1"
   inkscape:version="0.91 r13725"
   sodipodi:docname="logo.svg">
  <defs
     id="defs4" />
  <sodipodi:namedview
     id="base"
     pagecolor="#ffffff"
     bordercolor="#666666"
     borderopacity="1.0"
     inkscape:pageopacity="0.0"
     inkscape:pageshadow="2"
     inkscape:zoom="0.24748737"
     inkscape:cx="-782.63398"
     inkscape:cy="664.43831"
     inkscape:document-units="px"
     inkscape:current-layer="layer1"
     showgrid="false"
     inkscape:window-width="1600"
     inkscape:window-height="837"
     inkscape:window-x="-8"
     inkscape:window-y="-8"
     inkscape:window-maximized="1"
     showguides="true"
     inkscape:guide-bbox="true">
    <sodipodi:guide
       position="-993.99013,796.00023"
       orientation="-0.70710678,0.70710678"
       id="guide4146" />
  </sodipodi:namedview>
  <metadata
     id="metadata7">
    <rdf:RDF>
      <cc:Work
         rdf:about="">
        <dc:format>image/svg+xml</dc:format>
        <dc:type
           rdf:resource="http://purl.org/dc/dcmitype/StillImage" />
        <dc:title></dc:title>
      </cc:Work>
    </rdf:RDF>
  </metadata>
  <g
     inkscape:label="Layer 1"
     inkscape:groupmode="layer"
     id="layer1">
    <rect
       style="opacity:1;fill:#d32f2f;fill-opacity:1;stroke:#228b22"
       id="rect4138"
       width="537.14288"
       height="537.14288"
       x="139.75354"
       y="321.98956"
       ry="156"
       inkscape:export-xdpi="32.77"
       inkscape:export-ydpi="32.77" />
    <g
       id="g5488"
       transform="matrix(1.8559819,0,0,1.8559819,246.30923,414.54618)"
       inkscape:export-xdpi="32.77"
       inkscape:export-ydpi="32.77">
      <path
         id="path5490"
         d="M 166.182,69.605 53.074,3.48 C 47.854,1.74 42.633,0 37.413,0 21.752,0 7.831,12.181 7.831,29.582 l 0,130.509 c 0,15.661 12.181,29.582 29.582,29.582 5.22,0 10.441,-1.74 15.661,-1.74 l 113.108,-66.124 c 10.441,-5.22 15.661,-15.661 15.661,-26.102 0,-10.441 -6.961,-20.882 -15.661,-26.102 z m -8.701,33.062 -113.108,66.124 c -6.96,5.22 -19.141,0 -19.141,-10.441 l 0,-130.508 c 0,-6.96 5.22,-12.181 12.181,-12.181 3.48,0 5.22,0 6.96,0 l 113.108,66.124 c 5.22,1.74 6.96,6.96 6.96,10.441 0.001,3.481 -3.479,8.701 -6.96,10.441 z"
         inkscape:connector-curvature="0"
         style="fill:#ffffff" />
    </g>
    <g
       id="g5539"
       transform="matrix(0.61227137,0,0,0.61227137,344.2563,522.49293)">
      <path
         id="path5501"
         d="m 203.456,139.065 c 3.768,-10.786 5.824,-22.369 5.824,-34.425 0,-12.056 -2.056,-23.639 -5.824,-34.425 -0.092,-0.324 -0.201,-0.64 -0.333,-0.944 C 188.589,28.926 149.932,0 104.641,0 59.35,0 20.692,28.926 6.159,69.271 6.027,69.576 5.917,69.891 5.826,70.215 2.058,81.001 0.002,92.584 0.002,104.64 c 0,12.056 2.056,23.639 5.824,34.425 0.092,0.324 0.201,0.64 0.333,0.944 14.534,40.346 53.191,69.271 98.482,69.271 45.291,0 83.948,-28.926 98.482,-69.271 0.132,-0.304 0.241,-0.619 0.333,-0.944 z m -98.815,55.216 c -3.985,0 -10.41,-7.212 -15.78,-23.324 -2.592,-7.775 -4.667,-16.713 -6.179,-26.436 l 43.918,0 c -1.512,9.723 -3.587,18.66 -6.178,26.436 -5.371,16.112 -11.796,23.324 -15.781,23.324 z m -23.779,-64.76 c -0.721,-7.998 -1.102,-16.342 -1.102,-24.881 0,-8.539 0.381,-16.883 1.102,-24.881 l 47.557,0 c 0.721,7.998 1.102,16.342 1.102,24.881 0,8.539 -0.381,16.883 -1.102,24.881 l -47.557,0 z m -65.861,-24.88 c 0,-8.63 1.229,-16.978 3.516,-24.881 l 47.3,0 c -0.701,8.163 -1.057,16.529 -1.057,24.881 0,8.352 0.355,16.718 1.057,24.881 l -47.3,0 C 16.23,121.618 15.001,113.271 15.001,104.641 Z M 104.641,15 c 3.985,0 10.411,7.212 15.781,23.324 2.591,7.775 4.667,16.713 6.178,26.435 l -43.919,0 C 84.193,55.036 86.268,46.099 88.86,38.324 94.231,22.212 100.656,15 104.641,15 Z m 38.823,64.76 47.3,0 c 2.287,7.903 3.516,16.251 3.516,24.881 0,8.63 -1.229,16.978 -3.516,24.881 l -47.3,0 c 0.701,-8.163 1.057,-16.529 1.057,-24.881 0,-8.352 -0.356,-16.718 -1.057,-24.881 z m 41.439,-15 -43.16,0 c -2.668,-18.397 -7.245,-34.902 -13.666,-46.644 24.895,6.749 45.52,23.98 56.826,46.644 z M 81.204,18.115 C 74.783,29.857 70.206,46.362 67.538,64.76 l -43.16,0 C 35.685,42.096 56.309,24.865 81.204,18.115 Z m -56.826,126.406 43.16,0 c 2.668,18.397 7.245,34.902 13.666,46.645 -24.895,-6.75 -45.519,-23.98 -56.826,-46.645 z m 103.699,46.645 c 6.421,-11.742 10.998,-28.247 13.666,-46.645 l 43.16,0 c -11.306,22.665 -31.931,39.895 -56.826,46.645 z"
         inkscape:connector-curvature="0"
         style="fill:#ffffff" />
      <g
         id="g5503" />
      <g
         id="g5505" />
      <g
         id="g5507" />
      <g
         id="g5509" />
      <g
         id="g5511" />
      <g
         id="g5513" />
      <g
         id="g5515" />
      <g
         id="g5517" />
      <g
         id="g5519" />
      <g
         id="g5521" />
      <g
         id="g5523" />
      <g
         id="g5525" />
      <g
         id="g5527" />
      <g
         id="g5529" />
      <g
         id="g5531" />
    </g>
    <g
       id="g5558"
       transform="matrix(2.9268591,0,0,2.9268591,533.43305,346.35067)">
      <path
         style="fill:#ffffff"
         inkscape:connector-curvature="0"
         id="circle_1_"
         d="m 10.732,34.285 c 0,2.964 -2.402,5.356 -5.371,5.356 -2.955,0 -5.357,-2.393 -5.357,-5.356 0,-2.954 2.402,-5.372 5.357,-5.372 2.968,0 5.371,2.418 5.371,5.372 z" />
      <path
         style="fill:#ffffff"
         inkscape:connector-curvature="0"
         d="m 22.77,39.342 c -1.949,0 -3.484,-2.75 -4.548,-5.888 C 17.284,30.688 15.721,28.158 13.604,26.038 11.493,23.921 8.978,22.356 6.235,21.416 3.1,20.341 0.349,18.81 0.349,16.867 c 0,-1.943 2.722,-3.552 5.939,-2.757 9.462,2.337 16.925,9.814 19.255,19.292 0.79,3.218 -0.824,5.94 -2.773,5.94 z"
         id="path5561" />
      <path
         style="fill:#ffffff"
         inkscape:connector-curvature="0"
         d="m 36.513,39.342 c -1.944,0 -3.494,-2.708 -4.125,-5.961 C 29.833,20.211 19.458,9.807 6.323,7.24 3.071,6.605 0.363,5.058 0.363,3.117 c 0,-1.942 2.701,-3.54 5.973,-3.017 17.017,2.723 30.49,16.221 33.203,33.267 0.52,3.273 -1.081,5.975 -3.026,5.975 z"
         id="path5563" />
    </g>
    <g
       id="g5565"
       transform="matrix(2.9268591,0,0,2.9268591,532.24525,323.2441)" />
    <g
       id="g5567"
       transform="matrix(2.9268591,0,0,2.9268591,532.24525,323.2441)" />
    <g
       id="g5569"
       transform="matrix(2.9268591,0,0,2.9268591,532.24525,323.2441)" />
    <g
       id="g5571"
       transform="matrix(2.9268591,0,0,2.9268591,532.24525,323.2441)" />
    <g
       id="g5573"
       transform="matrix(2.9268591,0,0,2.9268591,532.24525,323.2441)" />
    <g
       id="g5575"
       transform="matrix(2.9268591,0,0,2.9268591,532.24525,323.2441)" />
    <g
       id="g5577"
       transform="matrix(2.9268591,0,0,2.9268591,532.24525,323.2441)" />
    <g
       id="g5579"
       transform="matrix(2.9268591,0,0,2.9268591,532.24525,323.2441)" />
    <g
       id="g5581"
       transform="matrix(2.9268591,0,0,2.9268591,532.24525,323.2441)" />
    <g
       id="g5583"
       transform="matrix(2.9268591,0,0,2.9268591,532.24525,323.2441)" />
    <g
       id="g5585"
       transform="matrix(2.9268591,0,0,2.9268591,532.24525,323.2441)" />
    <g
       id="g5587"
       transform="matrix(2.9268591,0,0,2.9268591,532.24525,323.2441)" />
    <g
       id="g5589"
       transform="matrix(2.9268591,0,0,2.9268591,532.24525,323.2441)" />
    <g
       id="g5591"
       transform="matrix(2.9268591,0,0,2.9268591,532.24525,323.2441)" />
    <g
       id="g5593"
       transform="matrix(2.9268591,0,0,2.9268591,532.24525,323.2441)" />
  </g>
</svg>
